<svg width="439" height="534" viewBox="0 0 439 534" fill="none" xmlns="http://www.w3.org/2000/svg">
<rect width="439" height="534" fill="#1964FF"/>
<path d="M208.377 391.534C190.241 391.534 174.23 386.953 160.344 377.79C146.459 368.533 135.596 355.498 127.756 338.684C119.915 321.775 115.995 301.797 115.995 278.749C115.995 255.889 119.915 236.053 127.756 219.239C135.596 202.425 146.506 189.436 160.486 180.274C174.466 171.111 190.619 166.53 208.944 166.53C223.113 166.53 234.307 168.891 242.525 173.614C250.837 178.243 257.166 183.533 261.511 189.484C265.951 195.34 269.399 200.158 271.855 203.936H274.688V96.8182H308.127V387H275.822V353.561H271.855C269.399 357.528 265.904 362.535 261.37 368.58C256.835 374.531 250.365 379.868 241.958 384.591C233.551 389.22 222.357 391.534 208.377 391.534ZM212.911 361.496C226.325 361.496 237.66 358.001 246.917 351.011C256.174 343.926 263.211 334.15 268.029 321.681C272.846 309.118 275.255 294.618 275.255 278.182C275.255 261.935 272.894 247.718 268.171 235.533C263.448 223.253 256.458 213.713 247.2 206.912C237.943 200.016 226.514 196.568 212.911 196.568C198.742 196.568 186.935 200.205 177.489 207.478C168.137 214.657 161.1 224.434 156.377 236.808C151.748 249.088 149.434 262.879 149.434 278.182C149.434 293.673 151.796 307.748 156.519 320.406C161.336 332.969 168.421 342.982 177.772 350.444C187.218 357.812 198.931 361.496 212.911 361.496Z" fill="white"/>
</svg>
